<svg xmlns="http://www.w3.org/2000/svg" width="107.048" height="79.755" viewBox="0 0 107.048 79.755"><defs><style>.a{fill:#2f2e41;}.b{fill:#bf6159;}.c{fill:#3f3d56;}.d{fill:#f2f2f2;}</style></defs><path class="a" d="M187.378,748.026c2.41,4.47,7.526,6.389,7.526,6.389s1.208-5.328-1.2-9.8-7.526-6.389-7.526-6.389S184.968,743.556,187.378,748.026Z" transform="translate(-179.304 -674.788)"/><path class="b" d="M161.731,773.552c4.351,2.618,6.027,7.818,6.027,7.818s-5.379.955-9.731-1.663S152,771.889,152,771.889,157.379,770.934,161.731,773.552Z" transform="translate(-152 -701.784)"/><path class="a" d="M171.193,616.065H125.274v-.33h45.589V599.713H129.134l-2.027-4.223.3-.143,1.937,4.036h41.851Z" transform="translate(-100.98 -544.874)"/><circle class="c" cx="3.469" cy="3.469" r="3.469" transform="translate(26.937 72.347)"/><circle class="c" cx="3.469" cy="3.469" r="3.469" transform="translate(61.128 72.347)"/><circle class="c" cx="2.147" cy="2.147" r="2.147" transform="translate(102.753)"/><path class="a" d="M278.429,514.035H226.816l-11.168-36.5h74.283l-.068.215Zm-51.369-.33h51.127l11.293-35.843H216.095Z" transform="translate(-203.305 -464.647)"/><path class="d" d="M137.4,445.39H92.069L82.26,413.015H147.5l-.059.191Z" transform="translate(-66.308 -397.901)"/><path class="a" d="M450.137,350.2l-.319-.085,2.18-8.216h12.681v.33H452.252Z" transform="translate(-362.586 -340.573)"/><rect class="a" width="66.961" height="0.33" transform="translate(15.952 23.951)"/><rect class="a" width="59.403" height="0.33" transform="translate(19.676 36.121)"/><rect class="a" width="0.33" height="36.174" transform="translate(49.318 13.049)"/><path class="a" d="M.172,1.837,36.259,0V.33L.172,2.168Z" transform="matrix(0.065, -0.998, 0.998, 0.065, 21.659, 49.22)"/><rect class="a" width="0.33" height="36.25" transform="translate(34.205 13.059) rotate(-3.729)"/></svg>