<svg xmlns="http://www.w3.org/2000/svg" width="33.945" height="33.945" viewBox="0 0 33.945 33.945"><defs><style>.a{fill:#2196f3;}.b{fill:#1e88e5;}.c{fill:#f44336;}.d{fill:#e53935;}.e{fill:#4caf50;}.f{fill:#43a047;}.g{fill:#ffc107;}.h{fill:#ffb300;}</style></defs><path class="a" d="M33.672,13.831a.273.273,0,0,1,.273.273v2.869a16.972,16.972,0,1,1-5.17-12.2.274.274,0,0,1,0,.391L24.721,9.224a.272.272,0,0,1-.38.005,10.687,10.687,0,1,0,2.851,10.885H17.246a.273.273,0,0,1-.273-.273V14.1a.273.273,0,0,1,.273-.273H33.672Z" transform="translate(0)"/><g transform="translate(15.947 13.831)"><path class="b" d="M258.256,208.612h-2.049a.273.273,0,0,1,.273.273v2.869A16.958,16.958,0,0,1,240.531,228.7q.45.027.906.03a16.959,16.959,0,0,0,17.092-16.972v-2.869A.273.273,0,0,0,258.256,208.612Z" transform="translate(-240.531 -208.612)"/></g><path class="c" d="M36.967,12.5,31.812,8.772a16.977,16.977,0,0,1,26.665-4,.274.274,0,0,1,0,.391L54.424,9.224a.272.272,0,0,1-.38.006A10.691,10.691,0,0,0,36.967,12.5Z" transform="translate(-29.703)"/><path class="d" d="M87.115,99.914,88.6,100.99a10.694,10.694,0,0,1,8.6-6.154l.086-.01q-.5-.048-1.023-.049A10.657,10.657,0,0,0,87.115,99.914Z" transform="translate(-81.339 -88.493)"/><path class="d" d="M251.323,4.775a.274.274,0,0,1,0,.391L248.034,8.46a10.746,10.746,0,0,1,.9.77.272.272,0,0,0,.38-.005l4.058-4.058a.274.274,0,0,0,0-.391A16.92,16.92,0,0,0,241.57,0c-.344,0-.686.011-1.025.032A16.918,16.918,0,0,1,251.323,4.775Z" transform="translate(-224.597)"/><path class="e" d="M54.614,323.65a16.975,16.975,0,0,1-27.634-3.944l5.262-3.606a10.69,10.69,0,0,0,17.217,3.826Z" transform="translate(-25.191 -295.143)"/><path class="f" d="M84.5,316.1l-1.552,1.063a10.687,10.687,0,0,0,9.424,5.641c.345,0,.686-.017,1.022-.049A10.7,10.7,0,0,1,84.5,316.1Z" transform="translate(-77.451 -295.144)"/><path class="f" d="M241.608,422.57a16.925,16.925,0,0,0,12.45-5.438l-1.263-.912a16.942,16.942,0,0,1-12.21,6.319Q241.093,422.569,241.608,422.57Z" transform="translate(-224.635 -388.625)"/><path class="g" d="M6.284,140.507a10.657,10.657,0,0,0,.768,3.985L1.789,148.1a17,17,0,0,1,.32-15.792l5.155,3.724a10.645,10.645,0,0,0-.98,4.476Z" transform="translate(0 -123.534)"/><path class="h" d="M65.136,182.865l1.552-1.063a10.718,10.718,0,0,1,.212-8.461l-1.488-1.075a10.74,10.74,0,0,0-.276,10.6Z" transform="translate(-59.637 -160.844)"/></svg>