<svg id="Layer_1" data-name="Layer 1" xmlns="http://www.w3.org/2000/svg" viewBox="0 0 512 512"><g id="Layer_2" data-name="Layer 2"><g id="Layer_2-2" data-name="Layer 2-2"><path d="M317.78,374.7c.66-.28.71-.8.89-1.22l18.81-38.73c2.44-5.08,4.7-10.15,7.42-15.14a5.53,5.53,0,0,0-.61-6.9c-1.32-1.51-2.49-3.06-3.76-4.7l-1.17-1.51a.46.46,0,0,1-.05-.66l.05,0,1.12-.9,5.17-3.9,1-.7a1.22,1.22,0,0,1,1.55,0,10.21,10.21,0,0,1,1.08.89l4.14,4.23a6.14,6.14,0,0,1,1.79,5.78,27.69,27.69,0,0,1-.94,3.1c-1.46,3.81-3.29,7.43-5,11.1L321,383.63l-.42.94a1.93,1.93,0,0,1-1.93,1.18h-8.08a1.83,1.83,0,0,1-1.83-1.32c-.71-1.88-1.41-3.81-2.07-5.69L285.4,319.66c-1-2.91-2.26-5.78-3.39-8.69a10.65,10.65,0,0,0-5.17-5.74c-.89-.52-1.83-.89-2.77-1.36a3.92,3.92,0,0,1-1.6-1.22.93.93,0,0,1,0-.94.85.85,0,0,1,.8-.52h20.54a1.56,1.56,0,0,1,1.22.66,1.11,1.11,0,0,1,.05,1.59.12.12,0,0,1-.05.05,10.47,10.47,0,0,1-1.31,1.27,3.77,3.77,0,0,0-1.37,5.08l18.1,46.39c2.26,5.73,4.7,11.52,6.72,17.25A10.68,10.68,0,0,0,317.78,374.7Z"/><path d="M262.18,328.26a32,32,0,0,0-19.84-23.12A53.25,53.25,0,0,0,226,301.28c-8.14-.65-16.27-.65-22.42-.7-8.65,0-15.28.42-21.91.33a3.57,3.57,0,0,0-.8,0,1.27,1.27,0,0,0-1.2,1.33,1.23,1.23,0,0,0,.22.64,3.72,3.72,0,0,0,1.5,1.36l1.69.71a4.23,4.23,0,0,1,2.4,2.87,9.29,9.29,0,0,1,0,2.58v66.32a11.3,11.3,0,0,1,0,1.84,4.4,4.4,0,0,1-2.92,3.8l-1.64.8a3.45,3.45,0,0,0-1.18,1.13,1.27,1.27,0,0,0,.35,1.76,1.22,1.22,0,0,0,.78.21,9.09,9.09,0,0,0,1.65,0,40.09,40.09,0,0,1,7.1,0h23.17a67.25,67.25,0,0,0,12.74-1.08,48.46,48.46,0,0,0,22.42-10,40.16,40.16,0,0,0,15.32-27.73A55.06,55.06,0,0,0,262.18,328.26Zm-11.57,19.65a39.41,39.41,0,0,1-2.3,10.72,32.2,32.2,0,0,1-22.56,20.73,45.06,45.06,0,0,1-11.42,1.69,74.22,74.22,0,0,1-14.81-.9c-2.72-.47-2.3,0-2.3-2.72V308.85c0-2.21,0-2.26,2.26-2.54a94.07,94.07,0,0,1,19.27-.75,46.42,46.42,0,0,1,11.32,2.21,29.36,29.36,0,0,1,20,23.36A60.88,60.88,0,0,1,250.61,347.91Z"/><path d="M170.15,384.15a5.54,5.54,0,0,0-1.88-1.22c-1.08-.57-2.17-1.08-3.2-1.69a9.38,9.38,0,0,1-4.18-4.71c-.57-1.36-1.23-2.72-1.79-4.08l-30.79-71.07c-.75-1.74-.51-1.65-2.53-1.65h-.38a1.7,1.7,0,0,0-2,1.22c-1.08,2.59-2.26,5.13-3.39,7.67Q108.38,335,96.49,361.35c-2.21,5-4.42,9.92-6.58,14.9a10.34,10.34,0,0,1-4.7,5.17l-2.54,1.27a12.47,12.47,0,0,0-1.59.9,3.78,3.78,0,0,0-.85.89.85.85,0,0,0,.29,1.16.9.9,0,0,0,.27.11H95.41c.41,0,.82,0,1.22,0a1.88,1.88,0,0,0,1.49-2.2,1,1,0,0,0-.08-.29,5,5,0,0,0-.51-.9A4.68,4.68,0,0,1,97,377.9l.56-1.51c2.59-6.15,5.13-12.26,7.71-18.37a6.92,6.92,0,0,0,.28-.76,1.38,1.38,0,0,1,1.51-1.08h33.37a1,1,0,0,1,.94.61l.38.76c2.72,6.25,5.4,12.55,8.13,18.8a8.58,8.58,0,0,1,.52,1.5,3.73,3.73,0,0,1-1.32,4,12.88,12.88,0,0,0-1.5,1.36,1.12,1.12,0,0,0-.06,1.59l.06.05a2.09,2.09,0,0,0,1.41.76,6.22,6.22,0,0,0,1.22,0h19.13a1,1,0,0,0,.8-.52A1.32,1.32,0,0,0,170.15,384.15Zm-32-32.9H108.29a3.14,3.14,0,0,1,0-.75c4.94-11.8,9.82-23.51,14.81-35.54a1.75,1.75,0,0,1,.8,1.13q6.12,14.1,12.17,28.2c.7,1.65,1.46,3.34,2.16,5a3.22,3.22,0,0,1,.47,1.5.94.94,0,0,1-.7.57Z"/><path d="M439.19,384.57a2.62,2.62,0,0,0-1.32-1.22L435.15,382a11.88,11.88,0,0,1-5.74-6.07c-10.57-24.67-21.2-49.25-31.82-74.12-1.17-2.63-.52-2.21-3.57-2.26h-.38a1,1,0,0,0-1,.62l-.52,1.12L377,336,359.1,376.16a10.66,10.66,0,0,1-5,5.55l-2.72,1.36a4.61,4.61,0,0,0-1.69,1.13,1.1,1.1,0,0,0-.33,1.12c0,.47.51.57.94.62a8.85,8.85,0,0,0,1,0h13.21a8.18,8.18,0,0,0,1,0,1.85,1.85,0,0,0,1.6-2,1.89,1.89,0,0,0-.1-.41,7.88,7.88,0,0,0-.56-1,4.7,4.7,0,0,1-.47-4.33l.7-1.88,4-9.4c1.31-3.1,2.63-6.2,3.9-9.4a1.32,1.32,0,0,1,1.41-.94h32.9a1.23,1.23,0,0,1,1.36,1v.56c2.68,6.07,5.31,12.18,8,18.29a6.69,6.69,0,0,1,.61,1.69,3.76,3.76,0,0,1-1.37,4.32,9.61,9.61,0,0,0-1.36,1.27,1.17,1.17,0,0,0,0,1.74,3,3,0,0,0,2.26.71h18.8a4.1,4.1,0,0,0,1,0,.9.9,0,0,0,1.26-.24A.92.92,0,0,0,439.19,384.57ZM407,351.39h-29.7a3.14,3.14,0,0,1,0-.75c4.7-11.66,9.73-23.5,14.61-35,0,0,0-.28.38-.47,1,1.64,15,34.45,15.37,36A.77.77,0,0,1,407,351.39Z"/><path d="M439.52,138.37h0a150.29,150.29,0,0,0,6-14.43c2.26-.66,12-2.72,26.09,7.38-2-6.95-8.27-14.38-23.12-16.45a122.39,122.39,0,0,0,4.7-24.58C403,216.58,289.06,217.2,227.58,198.91,117,166.72,48,203.61,48,203.61,152.9,186,201.54,216.91,272.52,220.53a267.28,267.28,0,0,0,45.87-1.36h-.66a39.27,39.27,0,0,1,7.81,23.5c1.92-2.54,7.89-9.68,1.69-24.63h0A186,186,0,0,0,353.17,212h0s7.95,4.7,11.43,24.58a26.27,26.27,0,0,0-3.86-27.12h0A153,153,0,0,0,380,201h0a45.64,45.64,0,0,1,18.8,22.7c6.15-15.13-9.87-27.92-9.87-27.92h0a138.12,138.12,0,0,0,18.42-13.67h0a29,29,0,0,1,16.31,25.71c8.51-18.57-10.72-31.31-10.72-31.31h0c1.46-1.46,2.83-2.91,4.19-4.42h0a30.45,30.45,0,0,1,27.12,12.84,28.21,28.21,0,0,0-17.39-24.82h0a142.44,142.44,0,0,0,9.77-15.56c17.77-1.88,23.51,9.07,24.63,11.75C463.25,139.5,439.52,138.37,439.52,138.37Z"/></g></g></svg>