<svg xmlns="http://www.w3.org/2000/svg" width="34.241" height="32.613" viewBox="0 0 34.241 32.613"><g transform="translate(1 1)"><path d="M16.6,32.3A2.3,2.3,0,1,1,14.3,30,2.3,2.3,0,0,1,16.6,32.3Z" transform="translate(-2.578 -2.992)" fill="#fff"/><path d="M33.1,32.3A2.3,2.3,0,1,1,30.8,30,2.3,2.3,0,0,1,33.1,32.3Z" transform="translate(-2.958 -2.992)" fill="#fff"/><path d="M1.5,1.5H7.362L11.29,21.123a2.931,2.931,0,0,0,2.931,2.359H28.465A2.931,2.931,0,0,0,31.4,21.123l2.345-12.3H8.828" transform="translate(-1.5 -1.5)" fill="none" stroke="#fff" stroke-linecap="round" stroke-linejoin="round" stroke-width="2"/></g></svg>