<svg xmlns="http://www.w3.org/2000/svg" width="28.662" height="22.887" viewBox="0 0 28.662 22.887"><g transform="translate(0.75 0.75)"><path d="M28.886,10.125H8.675A1.931,1.931,0,0,0,6.75,12.05V26.486a1.931,1.931,0,0,0,1.925,1.925H28.886a1.931,1.931,0,0,0,1.925-1.925V12.05A1.931,1.931,0,0,0,28.886,10.125Z" transform="translate(-3.649 -7.024)" fill="none" stroke="#b5b5b5" stroke-width="1.5"/><path d="M6.178,7.628h19.97v-1.2A1.931,1.931,0,0,0,24.223,4.5H3.05A1.931,1.931,0,0,0,1.125,6.425v15.4A1.931,1.931,0,0,0,3.05,23.749h1.2V9.553A1.931,1.931,0,0,1,6.178,7.628Z" transform="translate(-1.125 -4.5)" fill="none" stroke="#b5b5b5" stroke-width="1.5"/></g></svg>